<svg width="32" height="32" viewBox="0 0 32 32" fill="none" xmlns="http://www.w3.org/2000/svg">
<path d="M25.3334 5.33333H6.66669C5.60582 5.33333 4.58841 5.75476 3.83826 6.5049C3.08811 7.25505 2.66669 8.27246 2.66669 9.33333V22.6667C2.66669 23.7275 3.08811 24.7449 3.83826 25.4951C4.58841 26.2452 5.60582 26.6667 6.66669 26.6667H25.3334C26.3942 26.6667 27.4116 26.2452 28.1618 25.4951C28.9119 24.7449 29.3334 23.7275 29.3334 22.6667V9.33333C29.3334 8.27246 28.9119 7.25505 28.1618 6.5049C27.4116 5.75476 26.3942 5.33333 25.3334 5.33333V5.33333ZM24.44 7.99999L16 14.3333L7.56002 7.99999H24.44ZM25.3334 24H6.66669C6.31307 24 5.97393 23.8595 5.72388 23.6095C5.47383 23.3594 5.33335 23.0203 5.33335 22.6667V9.66666L15.2 17.0667C15.4308 17.2398 15.7115 17.3333 16 17.3333C16.2885 17.3333 16.5692 17.2398 16.8 17.0667L26.6667 9.66666V22.6667C26.6667 23.0203 26.5262 23.3594 26.2762 23.6095C26.0261 23.8595 25.687 24 25.3334 24Z" fill="currentColor"/>
</svg>
