<svg width="32" height="32" viewBox="0 0 32 32" fill="currentColor" xmlns="http://www.w3.org/2000/svg">
<path d="M21.6534 29.3333C21.2997 29.3333 20.9606 29.1929 20.7105 28.9428C20.4605 28.6928 20.32 28.3536 20.32 28V24.5333C20.3615 24.1346 20.3188 23.7315 20.1948 23.3503C20.0707 22.9691 19.8681 22.6181 19.6 22.32C19.434 22.14 19.3208 21.9177 19.2728 21.6776C19.2248 21.4374 19.2439 21.1887 19.3279 20.9587C19.4119 20.7287 19.5576 20.5263 19.7491 20.3736C19.9406 20.221 20.1704 20.124 20.4134 20.0933C23.6667 19.7067 26.6667 18.6667 26.6667 13.0267C26.6677 11.9734 26.3569 10.9435 25.7734 10.0667C25.2349 9.2595 25.0383 8.27181 25.2267 7.31999C25.3469 6.69909 25.3469 6.0609 25.2267 5.43999C24.2283 5.77756 23.2883 6.26782 22.44 6.89333C22.2797 7.00721 22.0961 7.0842 21.9024 7.11878C21.7088 7.15336 21.5099 7.14467 21.32 7.09333C18.9138 6.4134 16.3663 6.4134 13.96 7.09333C13.7701 7.14467 13.5713 7.15336 13.3776 7.11878C13.184 7.0842 13.0004 7.00721 12.84 6.89333C11.9866 6.26058 11.0366 5.76981 10.0267 5.43999C9.8999 6.06025 9.8999 6.69974 10.0267 7.31999C10.2015 8.2838 9.99598 9.27783 9.45336 10.0933C8.87238 10.9763 8.56189 12.0097 8.56003 13.0667C8.56003 18.2533 11.0667 19.64 14.8267 20.12C15.0727 20.1505 15.3054 20.249 15.4985 20.4045C15.6917 20.5599 15.8376 20.7662 15.92 21C15.9975 21.2269 16.0125 21.4705 15.9632 21.7051C15.9139 21.9398 15.8023 22.1568 15.64 22.3333C15.3807 22.6105 15.1816 22.9385 15.0554 23.2965C14.9292 23.6545 14.8786 24.0348 14.9067 24.4133V28C14.9067 28.3536 14.7662 28.6928 14.5162 28.9428C14.2661 29.1929 13.927 29.3333 13.5734 29.3333C13.2197 29.3333 12.8806 29.1929 12.6305 28.9428C12.3805 28.6928 12.24 28.3536 12.24 28V27.24C10.9298 27.3907 9.60273 27.2151 8.3768 26.7289C7.15087 26.2427 6.06415 25.461 5.21336 24.4533C4.77603 23.9686 4.25133 23.5705 3.66669 23.28C3.49685 23.2362 3.33729 23.1594 3.19713 23.054C3.05697 22.9485 2.93894 22.8165 2.8498 22.6655C2.76066 22.5144 2.70214 22.3473 2.67758 22.1736C2.65303 22 2.66292 21.8232 2.70669 21.6533C2.75047 21.4835 2.82727 21.3239 2.9327 21.1838C3.03814 21.0436 3.17015 20.9256 3.3212 20.8364C3.47225 20.7473 3.63938 20.6888 3.81305 20.6642C3.98672 20.6397 4.16352 20.6496 4.33336 20.6933C5.35903 21.067 6.27549 21.6902 7.00003 22.5067C8.33336 23.84 9.66669 25.0133 12.2 24.5333C12.1555 23.8175 12.2599 23.1001 12.5067 22.4267C9.76003 21.7333 5.84003 19.76 5.84003 13.0933C5.83651 11.5142 6.30044 9.96929 7.17336 8.65333C7.3355 8.4104 7.39759 8.11426 7.34669 7.82666C7.07726 6.38742 7.23008 4.90097 7.78669 3.54666C7.86232 3.36608 7.97679 3.20437 8.12197 3.07302C8.26715 2.94167 8.43947 2.8439 8.62669 2.78666C9.08003 2.65333 10.7067 2.38666 13.7867 4.38666C16.28 3.78666 18.8801 3.78666 21.3734 4.38666C24.4534 2.38666 26.08 2.63999 26.52 2.78666C26.7072 2.8439 26.8796 2.94167 27.0247 3.07302C27.1699 3.20437 27.2844 3.36608 27.36 3.54666C27.9177 4.90537 28.0706 6.3964 27.8 7.83999C27.7727 7.97006 27.7717 8.10427 27.7968 8.23476C27.822 8.36525 27.873 8.48941 27.9467 8.59999C28.8221 9.91974 29.2862 11.4696 29.28 13.0533C29.28 19.8133 25.3867 21.7733 22.6134 22.3867C22.8577 23.1021 22.9574 23.859 22.9067 24.6133V28C22.9073 28.3402 22.7779 28.6677 22.5449 28.9156C22.3119 29.1635 21.9929 29.3129 21.6534 29.3333V29.3333Z" fill="currentColor"/>
</svg>
