<svg width="32" height="32" viewBox="0 0 32 32" fill="none" xmlns="http://www.w3.org/2000/svg">
<g clip-path="url(#clip0_8_440)">
<path d="M26.4145 4.45692H5.58569C2.50569 4.45692 0 6.96338 0 10.0441V21.956C0 25.0368 2.50569 27.5431 5.58569 27.5431H26.4146C29.4945 27.5431 32.0001 25.0368 32.0001 21.956V10.0441C32 6.96338 29.4943 4.45692 26.4145 4.45692ZM29.7107 21.9559C29.7107 23.7743 28.232 25.2536 26.4145 25.2536H5.58569C3.768 25.2536 2.28928 23.7743 2.28928 21.9559V10.044C2.28928 8.22554 3.768 6.7462 5.58569 6.7462H26.4146C28.2321 6.7462 29.7109 8.22554 29.7109 10.044V21.9559H29.7107Z" fill="#A8B2D1"/>
<path d="M22.1442 15.0436L13.6592 9.45015C13.3078 9.21832 12.8574 9.19848 12.4865 9.39795C12.1158 9.59758 11.8846 9.98477 11.8846 10.4058V21.5942C11.8846 22.0152 12.1158 22.4023 12.4865 22.6021C12.6564 22.6936 12.843 22.7388 13.0291 22.7388C13.2491 22.7388 13.4688 22.6755 13.6592 22.5497L22.1442 16.9549C22.4655 16.743 22.6588 16.3841 22.6588 15.9992C22.6588 15.6144 22.4655 15.2555 22.1442 15.0436ZM14.1739 19.4683V12.5314L19.4348 15.9993L14.1739 19.4683Z" fill="#A8B2D1"/>
</g>
<defs>
<clipPath id="clip0_8_440">
<rect width="32" height="32" fill="white"/>
</clipPath>
</defs>
</svg>
