<?xml version="1.0" encoding="utf-8"?><!-- Uploaded to: SVG Repo, www.svgrepo.com, Generator: SVG Repo Mixer Tools -->
<svg width="800px" height="800px" viewBox="0 0 24 24" fill="none" xmlns="http://www.w3.org/2000/svg">
<path d="M20.5245 6.00694C20.3025 5.81544 20.0333 5.70603 19.836 5.63863C19.6156 5.56337 19.3637 5.50148 19.0989 5.44892C18.5677 5.34348 17.9037 5.26005 17.1675 5.19491C15.6904 5.06419 13.8392 5 12 5C10.1608 5 8.30956 5.06419 6.83246 5.1949C6.09632 5.26005 5.43231 5.34348 4.9011 5.44891C4.63628 5.50147 4.38443 5.56337 4.16403 5.63863C3.96667 5.70603 3.69746 5.81544 3.47552 6.00694C3.26514 6.18846 3.14612 6.41237 3.07941 6.55976C3.00507 6.724 2.94831 6.90201 2.90314 7.07448C2.81255 7.42043 2.74448 7.83867 2.69272 8.28448C2.58852 9.18195 2.53846 10.299 2.53846 11.409C2.53846 12.5198 2.58859 13.6529 2.69218 14.5835C2.74378 15.047 2.81086 15.4809 2.89786 15.8453C2.97306 16.1603 3.09841 16.5895 3.35221 16.9023C3.58757 17.1925 3.92217 17.324 4.08755 17.3836C4.30223 17.461 4.55045 17.5218 4.80667 17.572C5.32337 17.6733 5.98609 17.7527 6.72664 17.8146C8.2145 17.9389 10.1134 18 12 18C13.8865 18 15.7855 17.9389 17.2733 17.8146C18.0139 17.7527 18.6766 17.6733 19.1933 17.572C19.4495 17.5218 19.6978 17.461 19.9124 17.3836C20.0778 17.324 20.4124 17.1925 20.6478 16.9023C20.9016 16.5895 21.0269 16.1603 21.1021 15.8453C21.1891 15.4809 21.2562 15.047 21.3078 14.5835C21.4114 13.6529 21.4615 12.5198 21.4615 11.409C21.4615 10.299 21.4115 9.18195 21.3073 8.28448C21.2555 7.83868 21.1874 7.42043 21.0969 7.07448C21.0517 6.90201 20.9949 6.72401 20.9206 6.55976C20.8539 6.41236 20.7349 6.18846 20.5245 6.00694Z" stroke="#333333" stroke-width="2" stroke-linecap="round" stroke-linejoin="round"/>
<path d="M14.5385 11.5L10.0962 14.3578L10.0962 8.64207L14.5385 11.5Z" stroke="#333333" stroke-width="2" stroke-linecap="round" stroke-linejoin="round"/>
</svg>