<?xml version="1.0" standalone="no"?>
<!DOCTYPE svg PUBLIC "-//W3C//DTD SVG 20010904//EN"
 "http://www.w3.org/TR/2001/REC-SVG-20010904/DTD/svg10.dtd">
<svg version="1.0" xmlns="http://www.w3.org/2000/svg"
 width="1096.000000pt" height="1096.000000pt" viewBox="0 0 1096.000000 1096.000000"
 preserveAspectRatio="xMidYMid meet">
<metadata>
Created by potrace 1.14, written by Peter Selinger 2001-2017
</metadata>
<g transform="translate(0.000000,1096.000000) scale(0.100000,-0.100000)"
fill="#000000" stroke="none">
<path d="M4859 10575 c-1 -5 -2 -100 -4 -210 l-2 -200 251 -252 251 -253 0
-367 0 -368 125 0 125 0 0 367 0 368 251 252 251 253 -1 210 -1 210 -118 0
c-70 0 -121 -4 -126 -10 -4 -5 -7 -77 -6 -160 l2 -150 -189 -188 -189 -188
-186 186 -187 186 -1 162 -1 162 -122 0 c-75 0 -122 -4 -123 -10z"/>
<path d="M1207 10232 l-57 -58 693 -691 693 -691 -25 -30 c-14 -16 -56 -62
-92 -103 -300 -334 -560 -753 -729 -1174 -27 -67 -140 -392 -140 -403 0 -1 39
-1 86 0 l87 3 47 135 c72 206 125 329 219 515 172 338 354 597 627 894 l42 45
1031 -1029 c568 -567 1107 -1105 1199 -1196 92 -91 173 -172 180 -181 10 -13
7 -26 -17 -74 -16 -33 -32 -75 -37 -94 -4 -19 -9 -42 -11 -50 -2 -8 -3 -44 -4
-79 0 -73 22 -155 59 -224 l25 -47 -919 -915 -919 -915 -422 0 c-396 0 -423
-1 -424 -17 0 -10 -1 -75 -1 -146 l-1 -127 -45 57 c-228 292 -446 703 -578
1088 -26 77 -49 142 -50 144 -4 4 -174 9 -174 4 0 -12 105 -315 140 -403 47
-121 199 -427 269 -545 103 -174 254 -388 367 -520 28 -33 56 -69 62 -80 5
-11 10 -82 10 -160 l0 -140 -624 -621 -624 -622 56 -53 c30 -30 59 -54 64 -54
5 0 259 249 563 553 305 303 557 552 560 552 2 0 5 -411 5 -912 0 -502 1 -922
1 -933 1 -20 5 -20 1080 -20 956 0 1080 1 1083 15 2 8 3 860 3 1892 l-1 1878
916 0 916 0 -1 -1892 0 -1893 1075 -1 c591 0 1080 1 1085 3 7 2 10 321 9 933
-1 512 1 930 4 930 3 0 254 -249 559 -552 304 -304 558 -553 563 -553 6 0 35
24 65 54 l54 54 -691 687 c-380 378 -689 692 -687 697 3 9 101 122 149 173 36
37 173 214 242 310 227 320 410 684 538 1070 40 120 46 146 34 150 -17 6 -153
5 -158 -1 -2 -2 -21 -58 -44 -124 -104 -306 -233 -577 -414 -865 -22 -36 -43
-67 -47 -70 -3 -3 -20 -25 -36 -50 -80 -120 -231 -305 -380 -466 -8 -8 -355
331 -1224 1197 l-1214 1209 30 57 c73 140 73 293 -1 444 l-28 56 130 129 c72
71 617 614 1211 1207 593 592 1084 1077 1090 1077 6 0 11 -3 11 -7 0 -5 19
-28 41 -53 23 -25 55 -61 73 -80 56 -62 191 -233 252 -320 218 -309 382 -631
503 -990 l46 -135 89 -3 c69 -2 87 0 84 10 -3 7 -24 72 -48 143 -175 538 -458
1023 -854 1465 -42 46 -76 87 -76 91 0 4 311 317 690 695 l690 688 -59 60 -60
60 -691 -690 c-380 -379 -692 -690 -694 -691 -1 -2 -56 45 -122 103 -212 189
-470 373 -714 510 -104 58 -129 71 -305 154 -202 95 -443 180 -684 240 -247
62 -224 64 -306 -19 -38 -39 -67 -71 -64 -71 20 0 272 -55 369 -81 328 -86
704 -243 972 -404 50 -30 92 -55 94 -55 10 0 304 -209 324 -230 3 -3 24 -19
47 -36 37 -27 69 -55 228 -198 l40 -36 -1214 -1208 -1214 -1209 -44 25 c-138
77 -319 78 -459 3 l-51 -27 -1212 1205 c-666 663 -1211 1209 -1211 1212 0 4
46 47 101 95 56 49 107 94 113 99 20 19 249 190 311 232 128 88 279 175 441
255 339 167 623 263 1022 342 41 8 76 16 78 18 2 2 -27 35 -65 72 l-69 68 -83
-16 c-268 -54 -599 -165 -865 -291 -64 -30 -118 -55 -119 -55 -12 0 -322 -182
-410 -240 -187 -125 -407 -298 -547 -432 -10 -10 -22 -19 -27 -20 -5 -2 -317
303 -693 677 -375 375 -688 684 -694 687 -6 4 -36 -19 -67 -50z m4387 -3962
c199 -75 264 -340 121 -498 -170 -189 -475 -115 -539 131 -23 87 -7 172 45
251 35 52 118 114 171 126 63 15 146 11 202 -10z m-340 -716 c25 -14 70 -32
99 -40 47 -13 169 -19 207 -11 66 15 90 23 141 49 l59 30 355 -353 c195 -194
352 -355 349 -358 -6 -6 -1944 -8 -1963 -2 -8 2 125 142 340 357 195 194 357
353 360 353 4 1 27 -11 53 -25z m2125 -1586 c562 -561 806 -810 797 -815 -8
-5 -50 -41 -94 -81 -44 -39 -104 -91 -133 -114 -30 -24 -64 -52 -77 -63 -22
-21 -30 -21 -665 -21 l-642 1 -1 952 c0 524 1 952 2 950 1 -1 367 -365 813
-809z m-2982 352 l0 -450 -456 0 -456 0 450 450 c247 248 453 450 456 450 3 0
6 -202 6 -450z m0 -1927 l0 -1311 -916 1 -916 2 0 1307 c0 1301 0 1307 20
1310 11 2 423 3 916 3 l896 0 0 -1312z m3993 568 c44 -43 80 -81 80 -83 0 -2
-79 -4 -175 -4 -96 0 -175 4 -175 8 0 4 3 8 8 8 4 1 43 34 87 75 44 41 83 75
88 75 4 0 43 -36 87 -79z m5 -1059 c0 -442 -2 -808 -5 -812 -3 -5 -415 -8
-915 -7 l-910 2 -1 805 c-1 443 0 808 2 811 2 4 415 6 916 5 l913 -1 0 -803z"/>
<path d="M1027 6698 c-85 -84 -158 -162 -163 -173 -6 -12 -9 -240 -9 -558 l1
-539 165 -162 164 -162 298 1 298 1 163 162 163 161 0 336 0 335 -26 1 c-35 1
-703 1 -716 0 -8 -1 -13 -203 -6 -242 1 -3 106 -6 234 -7 127 0 239 -1 248 -1
14 -1 16 -22 15 -161 l-1 -160 -87 -87 -87 -87 -198 -1 -198 -1 -88 88 -89 88
0 446 -1 446 89 89 89 89 410 0 411 0 1 125 0 125 -463 0 -464 0 -153 -152z"/>
<path d="M8853 5980 c0 -478 3 -870 6 -871 3 -1 211 -2 461 -3 l455 -2 164
162 164 162 0 551 0 551 -162 160 -162 160 -463 0 -463 0 0 -870z m911 531
l89 -89 0 -446 0 -445 -89 -88 -89 -88 -285 0 -285 1 0 622 0 622 285 0 285 0
89 -89z"/>
<path d="M5015 1957 l-161 -162 1 -702 c0 -386 4 -705 8 -710 13 -12 236 -11
240 2 2 5 3 117 3 247 -1 153 2 239 9 240 9 3 682 1 725 -1 14 -1 15 -32 15
-241 -1 -132 1 -244 4 -248 7 -8 240 -10 242 -2 1 3 2 322 3 710 l2 705 -163
163 -163 162 -303 -1 -302 0 -160 -162z m751 -179 l90 -93 -2 -270 c-1 -148
-2 -275 -3 -281 -2 -15 -740 -15 -742 0 -1 6 -2 134 -3 284 l-1 273 89 89 89
90 196 0 196 0 91 -92z"/>
</g>
</svg>
